<svg width="21" height="18" viewBox="0 0 21 18" fill="none" xmlns="http://www.w3.org/2000/svg">
<g id="Group">
<path id="Vector" d="M1.13037 0.913086H2.98059C3.80655 0.913086 4.21953 0.913086 4.53044 1.13718C4.84136 1.36128 4.97195 1.75306 5.23314 2.53662L5.87916 4.47467" stroke="#8D8D8D" stroke-width="1.43478" stroke-linecap="round"/>
<path id="Vector_2" d="M17.7514 16.3465H6.53347C6.3599 16.3465 6.27313 16.3465 6.20728 16.3391C5.5097 16.261 5.03183 15.598 5.17833 14.9115C5.19215 14.8467 5.2196 14.7644 5.27448 14.5998C5.33542 14.417 5.36588 14.3255 5.39955 14.2449C5.74417 13.4191 6.5238 12.8571 7.41623 12.7913C7.50339 12.7849 7.59975 12.7849 7.79244 12.7849H14.1898" stroke="#8D8D8D" stroke-width="1.43478" stroke-linecap="round" stroke-linejoin="round"/>
<path id="Vector_3" d="M13.8082 12.7847H10.1978C8.67906 12.7847 7.91972 12.7847 7.325 12.3926C6.73029 12.0005 6.43118 11.3025 5.83293 9.90662L5.6325 9.43898C4.67148 7.19653 4.19096 6.07533 4.7188 5.27484C5.24663 4.47437 6.46646 4.47437 8.9061 4.47437H15.1756C17.9049 4.47437 19.2696 4.47437 19.7844 5.36133C20.2991 6.2483 19.622 7.4332 18.2679 9.80298L17.9313 10.3921C17.2641 11.5594 16.9306 12.1432 16.3778 12.464C15.8251 12.7847 15.1528 12.7847 13.8082 12.7847Z" stroke="#8D8D8D" stroke-width="1.43478" stroke-linecap="round"/>
</g>
</svg>
